<?xml version="1.0" encoding="UTF-8" standalone="no"?><!DOCTYPE svg PUBLIC "-//W3C//DTD SVG 1.1//EN" "http://www.w3.org/Graphics/SVG/1.1/DTD/svg11.dtd"><svg width="100%" height="100%" viewBox="0 0 117 34" version="1.1" xmlns="http://www.w3.org/2000/svg" xmlns:xlink="http://www.w3.org/1999/xlink" xml:space="preserve" xmlns:serif="http://www.serif.com/" style="fill-rule:evenodd;clip-rule:evenodd;stroke-linejoin:round;stroke-miterlimit:2;"><g><path d="M16.84,24.539l-16.84,-6.926l0,-3.55l16.84,-6.926l-0,3.867l-13.008,4.676l0,0.316l13.008,4.676l-0,3.867Z" style="fill:#000343;fill-rule:nonzero;"/><path d="M20.197,28.301l7.207,-24.961l5.098,-0l7.207,24.961l-3.691,-0l-5.907,-21.938l-0.316,0l-5.906,21.938l-3.692,-0Zm3.34,-6.082l0,-3.34l12.656,-0l0,3.34l-12.656,-0Z" style="fill:#000343;fill-rule:nonzero;"/><path d="M71.209,21.533c-0,1.664 -0.568,3.129 -1.705,4.395c-1.149,1.301 -2.508,1.951 -4.078,1.951c-1.102,-0 -1.998,-0.281 -2.69,-0.844c-0.269,-0.223 -0.715,-0.744 -1.336,-1.564c-0.421,-0.563 -0.843,-0.844 -1.265,-0.844c-0.457,-0 -0.598,0.311 -0.422,0.932c0.551,1.933 1.74,4.248 3.568,6.943l0,0.65l-8.824,0l0,-0.527c1.664,-2.953 2.731,-5.326 3.199,-7.119c0.035,-0.106 0.053,-0.205 0.053,-0.299c-0,-0.41 -0.164,-0.615 -0.492,-0.615c-0.469,-0 -0.903,0.281 -1.301,0.844c-0.574,0.82 -1.02,1.347 -1.336,1.582c-0.75,0.574 -1.793,0.861 -3.129,0.861c-1.488,-0 -2.777,-0.674 -3.867,-2.022c-1.055,-1.3 -1.582,-2.771 -1.582,-4.412c-0,-0.902 0.363,-2.179 1.09,-3.832c0.703,-1.617 1.588,-3.217 2.654,-4.799c2.555,-3.785 5.49,-7.218 8.807,-10.3c2.754,2.636 5.636,6.07 8.648,10.3c2.672,3.75 4.008,6.657 4.008,8.719Z" style="fill:#000343;fill-rule:nonzero;"/><path d="M78.504,31.641l14.133,-31.641l3.726,0l-14.133,31.641l-3.726,-0Z" style="fill:#000343;fill-rule:nonzero;"/><path d="M100.16,24.539l0,-3.867l12.305,-4.676l-0,-0.316l-12.305,-4.676l0,-3.867l16.84,6.926l0,3.55l-16.84,6.926Z" style="fill:#000343;fill-rule:nonzero;"/></g></svg>