<?xml version="1.0" encoding="UTF-8" standalone="no"?><!DOCTYPE svg PUBLIC "-//W3C//DTD SVG 1.1//EN" "http://www.w3.org/Graphics/SVG/1.1/DTD/svg11.dtd"><svg width="100%" height="100%" viewBox="0 0 33 33" version="1.1" xmlns="http://www.w3.org/2000/svg" xmlns:xlink="http://www.w3.org/1999/xlink" xml:space="preserve" xmlns:serif="http://www.serif.com/" style="fill-rule:evenodd;clip-rule:evenodd;stroke-linejoin:round;stroke-miterlimit:2;"><g><path d="M26.106,2.123c1.125,-1.125 2.949,-1.125 4.073,-0c0.057,0.056 0.114,0.113 0.17,0.17c1.125,1.124 1.125,2.948 0,4.073c-5.192,5.191 -18.878,18.878 -24.07,24.07c-1.125,1.124 -2.948,1.124 -4.073,-0c-0.056,-0.057 -0.113,-0.114 -0.17,-0.17c-1.124,-1.125 -1.124,-2.948 0,-4.073c5.192,-5.192 18.879,-18.878 24.07,-24.07Z" style="fill:#ebebeb;"/><path d="M30.42,26.106c1.125,1.125 1.125,2.949 0,4.073c-0.056,0.057 -0.113,0.114 -0.169,0.17c-1.125,1.125 -2.949,1.125 -4.073,0c-5.192,-5.192 -18.878,-18.878 -24.07,-24.07c-1.125,-1.125 -1.125,-2.948 -0,-4.073c0.056,-0.056 0.113,-0.113 0.169,-0.17c1.125,-1.124 2.949,-1.124 4.073,0c5.192,5.192 18.879,18.879 24.07,24.07Z" style="fill:#ebebeb;"/></g></svg>