<?xml version="1.0" encoding="UTF-8" standalone="no"?><!DOCTYPE svg PUBLIC "-//W3C//DTD SVG 1.1//EN" "http://www.w3.org/Graphics/SVG/1.1/DTD/svg11.dtd"><svg width="100%" height="100%" viewBox="0 0 31 31" version="1.1" xmlns="http://www.w3.org/2000/svg" xmlns:xlink="http://www.w3.org/1999/xlink" xml:space="preserve" xmlns:serif="http://www.serif.com/" style="fill-rule:evenodd;clip-rule:evenodd;stroke-linejoin:round;stroke-miterlimit:2;"><g><path d="M27.136,1.131c0.277,-0.277 0.653,-0.433 1.044,-0.433c0.392,0 0.768,0.156 1.045,0.433c-0,-0 -0,-0 -0,0c0.277,0.277 0.433,0.653 0.433,1.044c-0,0.392 -0.156,0.768 -0.433,1.045c-4.428,4.428 -21.626,21.626 -26.054,26.054c-0.277,0.277 -0.653,0.433 -1.045,0.433c-0.391,-0 -0.767,-0.156 -1.044,-0.433c-0,-0 -0,-0 -0,-0c-0.277,-0.277 -0.433,-0.653 -0.433,-1.045c0,-0.391 0.156,-0.767 0.433,-1.044c4.428,-4.428 21.626,-21.626 26.054,-26.054Z" style="fill:#ebebeb;"/><path d="M29.188,27.099c0.277,0.277 0.432,0.652 0.432,1.044c0,0.392 -0.155,0.767 -0.432,1.044c-0.001,0 -0.001,0 -0.001,0.001c-0.277,0.277 -0.652,0.432 -1.044,0.432c-0.392,0 -0.767,-0.155 -1.044,-0.432c-4.428,-4.428 -21.627,-21.627 -26.055,-26.055c-0.277,-0.277 -0.432,-0.652 -0.432,-1.044c-0,-0.392 0.155,-0.767 0.432,-1.044c0,-0 0.001,-0.001 0.001,-0.001c0.277,-0.277 0.652,-0.432 1.044,-0.432c0.392,-0 0.767,0.155 1.044,0.432c4.428,4.428 21.627,21.627 26.055,26.055Z" style="fill:#ebebeb;"/></g></svg>