<?xml version="1.0" encoding="UTF-8" standalone="no"?><!DOCTYPE svg PUBLIC "-//W3C//DTD SVG 1.1//EN" "http://www.w3.org/Graphics/SVG/1.1/DTD/svg11.dtd"><svg width="100%" height="100%" viewBox="0 0 22 22" version="1.1" xmlns="http://www.w3.org/2000/svg" xmlns:xlink="http://www.w3.org/1999/xlink" xml:space="preserve" xmlns:serif="http://www.serif.com/" style="fill-rule:evenodd;clip-rule:evenodd;stroke-linecap:round;stroke-linejoin:round;stroke-miterlimit:1.5;"><g id="Info"><circle cx="10.895" cy="10.895" r="10.359" style="fill:none;stroke:#fff;stroke-width:1.07px;"/><path d="M11.904,9.578l0,5.558c0,0.385 -0.091,0.676 -0.274,0.873c-0.183,0.197 -0.416,0.296 -0.698,0.296c-0.281,-0 -0.512,-0.101 -0.69,-0.303c-0.174,-0.202 -0.261,-0.491 -0.261,-0.866l0,-5.502c0,-0.38 0.087,-0.667 0.261,-0.859c0.178,-0.193 0.409,-0.289 0.69,-0.289c0.282,0 0.515,0.096 0.698,0.289c0.183,0.192 0.274,0.46 0.274,0.803Zm-0.951,-1.986c-0.267,-0 -0.497,-0.083 -0.69,-0.247c-0.188,-0.164 -0.282,-0.397 -0.282,-0.697c0,-0.273 0.097,-0.496 0.289,-0.669c0.197,-0.179 0.425,-0.268 0.683,-0.268c0.249,-0 0.47,0.08 0.663,0.239c0.192,0.16 0.288,0.392 0.288,0.698c0,0.296 -0.094,0.528 -0.281,0.697c-0.188,0.164 -0.411,0.247 -0.67,0.247Z" style="fill:#fff;fill-rule:nonzero;"/></g></svg>