<?xml version="1.0" encoding="UTF-8" standalone="no"?>
<!DOCTYPE svg PUBLIC "-//W3C//DTD SVG 1.1//EN" "http://www.w3.org/Graphics/SVG/1.1/DTD/svg11.dtd">
<svg width="100%" height="100%" viewBox="0 0 25 21" version="1.1" xmlns="http://www.w3.org/2000/svg"
  xmlns:xlink="http://www.w3.org/1999/xlink" xml:space="preserve"
  xmlns:serif="http://www.serif.com/"
  style="fill-rule:evenodd;clip-rule:evenodd;stroke-linejoin:round;stroke-miterlimit:2;"><g id="Warning"><path d="M10.987,1.824c0.219,-0.377 0.623,-0.609 1.059,-0.609c0.436,-0 0.84,0.232 1.059,0.609c2.28,3.929 7.633,13.154 9.92,17.095c0.22,0.379 0.22,0.846 0.002,1.226c-0.218,0.379 -0.623,0.613 -1.061,0.613c-4.567,-0 -15.273,-0 -19.841,-0c-0.437,-0 -0.842,-0.234 -1.06,-0.613c-0.219,-0.38 -0.218,-0.847 0.002,-1.226c2.287,-3.941 7.64,-13.166 9.92,-17.095Z" style="fill:#ebebeb;"/><path d="M10.987,1.824c0.219,-0.377 0.623,-0.609 1.059,-0.609c0.436,-0 0.84,0.232 1.059,0.609c2.28,3.929 7.633,13.154 9.92,17.095c0.22,0.379 0.22,0.846 0.002,1.226c-0.218,0.379 -0.623,0.613 -1.061,0.613c-4.567,-0 -15.273,-0 -19.841,-0c-0.437,-0 -0.842,-0.234 -1.06,-0.613c-0.219,-0.38 -0.218,-0.847 0.002,-1.226c2.287,-3.941 7.64,-13.166 9.92,-17.095Z" style="fill:#ffffff"/><path d="M10.987,1.824c0.219,-0.377 0.623,-0.609 1.059,-0.609c0.436,-0 0.84,0.232 1.059,0.609c2.28,3.929 7.633,13.154 9.92,17.095c0.22,0.379 0.22,0.846 0.002,1.226c-0.218,0.379 -0.623,0.613 -1.061,0.613c-4.567,-0 -15.273,-0 -19.841,-0c-0.437,-0 -0.842,-0.234 -1.06,-0.613c-0.219,-0.38 -0.218,-0.847 0.002,-1.226c2.287,-3.941 7.64,-13.166 9.92,-17.095Z" style="fill:none;"/><path d="M11.3,13.349l-0.226,-3.374c-0.042,-0.657 -0.063,-1.129 -0.063,-1.415c-0,-0.39 0.101,-0.693 0.303,-0.909c0.206,-0.221 0.476,-0.331 0.81,-0.331c0.404,-0 0.674,0.141 0.81,0.422c0.136,0.277 0.204,0.679 0.204,1.205c0,0.31 -0.016,0.624 -0.049,0.944l-0.303,3.472c-0.033,0.414 -0.103,0.731 -0.211,0.951c-0.108,0.221 -0.287,0.331 -0.536,0.331c-0.253,0 -0.429,-0.105 -0.528,-0.317c-0.099,-0.216 -0.169,-0.542 -0.211,-0.979Zm0.782,4.635c-0.287,0 -0.538,-0.091 -0.754,-0.275c-0.211,-0.187 -0.317,-0.448 -0.317,-0.781c-0,-0.292 0.101,-0.538 0.303,-0.74c0.206,-0.207 0.458,-0.31 0.753,-0.31c0.296,0 0.548,0.103 0.754,0.31c0.211,0.202 0.317,0.448 0.317,0.74c0,0.328 -0.106,0.587 -0.317,0.774c-0.211,0.188 -0.458,0.282 -0.739,0.282Z" style="fill:#ef5f5f;fill-rule:nonzero;"/></g></svg>